<svg width="84" height="84" viewBox="0 0 84 84" fill="none" xmlns="http://www.w3.org/2000/svg">
<path d="M67 44.5C67 49.939 65.3872 55.2558 62.3654 59.7782C59.3437 64.3005 55.0488 67.8253 50.0238 69.9067C44.9988 71.9881 39.4695 72.5327 34.135 71.4716C28.8005 70.4105 23.9005 67.7914 20.0546 63.9454C16.2086 60.0995 13.5895 55.1995 12.5284 49.865C11.4673 44.5305 12.0119 39.0012 14.0933 33.9762C16.1747 28.9512 19.6995 24.6563 24.2218 21.6346C28.7442 18.6128 34.061 17 39.5 17L39.5 44.5H67Z" fill="white"/>
<path d="M44.5 12C48.1114 12 51.6873 12.7113 55.0238 14.0933C58.3602 15.4753 61.3918 17.501 63.9454 20.0546C66.499 22.6082 68.5247 25.6398 69.9067 28.9762C71.2887 32.3127 72 35.8887 72 39.5L44.5 39.5L44.5 12Z" fill="white"/>
<path d="M42 51C42 52.78 41.4722 54.5201 40.4832 56.0001C39.4943 57.4802 38.0887 58.6337 36.4441 59.3149C34.7996 59.9961 32.99 60.1743 31.2442 59.8271C29.4984 59.4798 27.8947 58.6226 26.636 57.364C25.3774 56.1053 24.5202 54.5016 24.1729 52.7558C23.8257 51.01 24.0039 49.2004 24.6851 47.5558C25.3663 45.9113 26.5198 44.5057 27.9999 43.5168C29.4799 42.5278 31.22 42 33 42L33 51H42Z" fill="#3F8CFF"/>
</svg>
